# xmcd
#
# Track frame offsets:
#	150
#	14886
#	30345
#	43766
#	54356
#	69390
#	86825
#	103696
#	122758
#	134260
#	147769
#	160353
#	166762
#
# Disc length: 2441 seconds
#
# Revision: 0
# Processed by: cddbd v1.5.2PL0 Copyright (c) Steve Scherf et al.
# Submitted via: EasyCDDAExtractor 16.0.1.1
#
DISCID=ae09870d
DTITLE=Giles Robson - Crooked Heart Of Mine
DYEAR=2012
DGENRE=Blues
TTITLE0=The Might Incinerator
TTITLE1=Swindler For You
TTITLE2=Keep On Digging
TTITLE3=Some Kinda King
TTITLE4=Devil Led Evil
TTITLE5=Stick To The Promise
TTITLE6=Crooked Heart Of Mine
TTITLE7=Twenty Gallons Of Muddy Water
TTITLE8=Solidor
TTITLE9=Cooling Board
TTITLE10=Magic Tricks
TTITLE11=Hometown
TTITLE12=Ain't Dead Yet
EXTD=
EXTT0=
EXTT1=
EXTT2=
EXTT3=
EXTT4=
EXTT5=
EXTT6=
EXTT7=
EXTT8=
EXTT9=
EXTT10=
EXTT11=
EXTT12=
PLAYORDER=
